<svg width="19" height="21" viewBox="0 0 19 21" fill="none" xmlns="http://www.w3.org/2000/svg">
<path d="M18.4062 2.81592H16.0312L15.7655 2.19573C15.6669 1.96536 15.5153 1.77162 15.3278 1.63621C15.1402 1.50079 14.924 1.42906 14.7035 1.42904H12.7137L11.7013 0.246725C11.3269 -0.190143 10.6875 0.119305 10.6875 0.736901V7.23098L15.4375 9.21205V7.67001H16.625C17.9368 7.67001 19 6.42832 19 4.89625V3.50937C19 3.12624 18.7343 2.81592 18.4062 2.81592ZM14.25 4.89625C13.922 4.89625 13.6562 4.58593 13.6562 4.20281C13.6562 3.81968 13.922 3.50937 14.25 3.50937C14.578 3.50937 14.8438 3.81968 14.8438 4.20281C14.8438 4.58593 14.578 4.89625 14.25 4.89625ZM3.5625 8.36345C2.90789 8.36345 2.375 7.74109 2.375 6.97657C2.375 6.21075 1.84322 5.58969 1.1875 5.58969C0.531777 5.58969 0 6.21075 0 6.97657C0 8.78212 0.995645 10.3073 2.375 10.8815V20.152C2.375 20.5351 2.6407 20.8454 2.96875 20.8454H5.34375C5.6718 20.8454 5.9375 20.5351 5.9375 20.152V15.2979H11.875V20.152C11.875 20.5351 12.1407 20.8454 12.4688 20.8454H14.8438C15.1718 20.8454 15.4375 20.5351 15.4375 20.152V10.6843L9.87295 8.36345H3.5625Z" fill="#a6894e"/>
</svg>
