<svg width="19" height="19" viewBox="0 0 19 19" fill="none" xmlns="http://www.w3.org/2000/svg">
<path d="M17.6428 4.77305C16.8963 4.77305 16.2856 5.27652 16.2856 5.89188V8.40924C16.2856 8.56308 16.1329 8.68895 15.9462 8.68895H15.2676C15.081 8.68895 14.9283 8.56308 14.9283 8.40924V3.09481C14.9283 2.47945 14.3176 1.97598 13.5711 1.97598C12.8246 1.97598 12.2139 2.47945 12.2139 3.09481V8.40924C12.2139 8.56308 12.0612 8.68895 11.8746 8.68895H11.196C11.0094 8.68895 10.8567 8.56308 10.8567 8.40924V1.97598C10.8567 1.36062 10.2459 0.857147 9.49944 0.857147C8.75297 0.857147 8.14222 1.36062 8.14222 1.97598V8.40924C8.14222 8.56308 7.98953 8.68895 7.80292 8.68895H7.1243C6.93769 8.68895 6.785 8.56308 6.785 8.40924V3.09481C6.785 2.47945 6.17425 1.97598 5.42778 1.97598C4.6813 1.97598 4.07055 2.47945 4.07055 3.09481V11.521L3.0696 10.3847C2.51823 9.75883 1.4579 9.62247 0.698704 10.077C-0.0604918 10.5315 -0.225903 11.4056 0.325468 12.0315L5.65257 18.0696C6.03429 18.5032 6.64928 18.7619 7.2982 18.7619H15.679C16.6249 18.7619 17.4434 18.227 17.6597 17.4683L18.7837 13.5279C18.9194 13.0489 18.9915 12.5384 19 12.0489V5.89188C19 5.27652 18.3892 4.77305 17.6428 4.77305ZM7.46361 15.4019C7.09037 15.4019 6.785 15.1502 6.785 14.8425C6.785 14.5348 7.09037 14.2831 7.46361 14.2831C7.83685 14.2831 8.14222 14.5348 8.14222 14.8425C8.14222 15.1502 7.83685 15.4019 7.46361 15.4019ZM7.46361 12.0454C7.09037 12.0454 6.785 11.7937 6.785 11.486C6.785 11.1783 7.09037 10.9266 7.46361 10.9266C7.83685 10.9266 8.14222 11.1783 8.14222 11.486C8.14222 11.7937 7.83685 12.0454 7.46361 12.0454ZM10.1781 16.5208C9.80482 16.5208 9.49944 16.269 9.49944 15.9613C9.49944 15.6537 9.80482 15.4019 10.1781 15.4019C10.5513 15.4019 10.8567 15.6537 10.8567 15.9613C10.8567 16.269 10.5513 16.5208 10.1781 16.5208ZM10.1781 13.1643C9.80482 13.1643 9.49944 12.9125 9.49944 12.6049C9.49944 12.2972 9.80482 12.0454 10.1781 12.0454C10.5513 12.0454 10.8567 12.2972 10.8567 12.6049C10.8567 12.9125 10.5513 13.1643 10.1781 13.1643ZM12.8925 14.2831C12.5193 14.2831 12.2139 14.0314 12.2139 13.7237C12.2139 13.416 12.5193 13.1643 12.8925 13.1643C13.2657 13.1643 13.5711 13.416 13.5711 13.7237C13.5711 14.0314 13.2657 14.2831 12.8925 14.2831ZM14.2497 16.5208C13.8765 16.5208 13.5711 16.269 13.5711 15.9613C13.5711 15.6537 13.8765 15.4019 14.2497 15.4019C14.623 15.4019 14.9283 15.6537 14.9283 15.9613C14.9283 16.269 14.623 16.5208 14.2497 16.5208ZM15.6069 12.0454C15.2337 12.0454 14.9283 11.7937 14.9283 11.486C14.9283 11.1783 15.2337 10.9266 15.6069 10.9266C15.9802 10.9266 16.2856 11.1783 16.2856 11.486C16.2856 11.7937 15.9802 12.0454 15.6069 12.0454Z" fill="#a6894e"/>
</svg>
