<svg width="16" height="17" viewBox="0 0 16 17" fill="none" xmlns="http://www.w3.org/2000/svg">
<path d="M12.1769 4.02767L7.2375 9.55507C6.94469 9.88274 6.46969 9.88274 6.17688 9.55507L5.82312 9.1592C5.53031 8.83153 5.53031 8.29998 5.82312 7.97231L5.82656 7.96847C4.76312 6.56231 4.72781 4.50851 5.72062 3.05935C5.34656 2.79532 4.90375 2.64285 4.43 2.64285C3.09 2.64285 2 3.86261 2 5.36213V16.0714H0V5.36213C0 2.62851 1.98719 0.404755 4.43 0.404755C5.58406 0.404755 6.63656 0.901332 7.42562 1.71334C8.5475 1.31083 9.81625 1.55597 10.7591 2.44876L10.7625 2.44492C11.0553 2.11725 11.5303 2.11725 11.8231 2.44492L12.1769 2.84078C12.4697 3.16845 12.4697 3.7 12.1769 4.02767ZM12 6.55952C12 6.86855 11.7762 7.11904 11.5 7.11904C11.2238 7.11904 11 6.86855 11 6.55952C11 6.25048 11.2238 5.99999 11.5 5.99999C11.7762 5.99999 12 6.25048 12 6.55952ZM13 6.55952C13 6.25048 13.2238 5.99999 13.5 5.99999C13.7762 5.99999 14 6.25048 14 6.55952C14 6.86855 13.7762 7.11904 13.5 7.11904C13.2238 7.11904 13 6.86855 13 6.55952ZM16 6.55952C16 6.86855 15.7762 7.11904 15.5 7.11904C15.2238 7.11904 15 6.86855 15 6.55952C15 6.25048 15.2238 5.99999 15.5 5.99999C15.7762 5.99999 16 6.25048 16 6.55952ZM11 7.67856C11 7.9876 10.7762 8.23809 10.5 8.23809C10.2238 8.23809 10 7.9876 10 7.67856C10 7.36953 10.2238 7.11904 10.5 7.11904C10.7762 7.11904 11 7.36953 11 7.67856ZM12.5 7.11904C12.7762 7.11904 13 7.36953 13 7.67856C13 7.9876 12.7762 8.23809 12.5 8.23809C12.2238 8.23809 12 7.9876 12 7.67856C12 7.36953 12.2238 7.11904 12.5 7.11904ZM15 7.67856C15 7.9876 14.7762 8.23809 14.5 8.23809C14.2238 8.23809 14 7.9876 14 7.67856C14 7.36953 14.2238 7.11904 14.5 7.11904C14.7762 7.11904 15 7.36953 15 7.67856ZM10 8.79761C10 9.10664 9.77616 9.35713 9.5 9.35713C9.22384 9.35713 9 9.10664 9 8.79761C9 8.48858 9.22384 8.23809 9.5 8.23809C9.77616 8.23809 10 8.48858 10 8.79761ZM11 8.79761C11 8.48858 11.2238 8.23809 11.5 8.23809C11.7762 8.23809 12 8.48858 12 8.79761C12 9.10664 11.7762 9.35713 11.5 9.35713C11.2238 9.35713 11 9.10664 11 8.79761ZM14 8.79761C14 9.10664 13.7762 9.35713 13.5 9.35713C13.2238 9.35713 13 9.10664 13 8.79761C13 8.48858 13.2238 8.23809 13.5 8.23809C13.7762 8.23809 14 8.48858 14 8.79761ZM10 9.91666C10 9.60763 10.2238 9.35713 10.5 9.35713C10.7762 9.35713 11 9.60763 11 9.91666C11 10.2257 10.7762 10.4762 10.5 10.4762C10.2238 10.4762 10 10.2257 10 9.91666ZM13 9.91666C13 10.2257 12.7762 10.4762 12.5 10.4762C12.2238 10.4762 12 10.2257 12 9.91666C12 9.60763 12.2238 9.35713 12.5 9.35713C12.7762 9.35713 13 9.60763 13 9.91666ZM10 11.0357C10 11.3447 9.77616 11.5952 9.5 11.5952C9.22384 11.5952 9 11.3447 9 11.0357C9 10.7267 9.22384 10.4762 9.5 10.4762C9.77616 10.4762 10 10.7267 10 11.0357ZM12 11.0357C12 11.3447 11.7762 11.5952 11.5 11.5952C11.2238 11.5952 11 11.3447 11 11.0357C11 10.7267 11.2238 10.4762 11.5 10.4762C11.7762 10.4762 12 10.7267 12 11.0357ZM11 12.1548C11 12.4638 10.7762 12.7143 10.5 12.7143C10.2238 12.7143 10 12.4638 10 12.1548C10 11.8457 10.2238 11.5952 10.5 11.5952C10.7762 11.5952 11 11.8457 11 12.1548ZM10 13.2738C10 13.5828 9.77616 13.8333 9.5 13.8333C9.22384 13.8333 9 13.5828 9 13.2738C9 12.9648 9.22384 12.7143 9.5 12.7143C9.77616 12.7143 10 12.9648 10 13.2738Z" fill="#a6894e"/>
</svg>
