<svg width="21" height="18" viewBox="0 0 21 18" fill="none" xmlns="http://www.w3.org/2000/svg">
<path d="M19.25 0.0238037H1.75C0.783854 0.0238037 0 0.775664 0 1.70238V12.8929C0 13.8196 0.783854 14.5714 1.75 14.5714H8.75L8.16667 16.25H5.54167C5.05677 16.25 4.66667 16.6242 4.66667 17.0893C4.66667 17.5544 5.05677 17.9286 5.54167 17.9286H15.4583C15.9432 17.9286 16.3333 17.5544 16.3333 17.0893C16.3333 16.6242 15.9432 16.25 15.4583 16.25H12.8333L12.25 14.5714H19.25C20.2161 14.5714 21 13.8196 21 12.8929V1.70238C21 0.775664 20.2161 0.0238037 19.25 0.0238037ZM18.6667 12.3333H2.33333V2.2619H18.6667V12.3333Z" fill="#a6894e"/>
</svg>
