<svg width="20" height="15" viewBox="0 0 20 15" fill="none" xmlns="http://www.w3.org/2000/svg">
<path d="M19.8409 4.01401C14.3044 -1.30724 5.69341 -1.30529 0.159036 4.01401C-0.0490891 4.21404 -0.0531516 4.55272 0.148098 4.76022L1.2181 5.86331C1.40997 6.06139 1.71872 6.06561 1.9181 5.87565C6.4781 1.53474 13.5212 1.53377 18.0822 5.87565C18.2815 6.06561 18.5903 6.06107 18.7822 5.86331L19.8522 4.76022C20.0531 4.55272 20.049 4.21404 19.8409 4.01401ZM9.99998 10.415C8.89529 10.415 7.99998 11.3453 7.99998 12.4932C7.99998 13.6411 8.89529 14.5714 9.99998 14.5714C11.1047 14.5714 12 13.6411 12 12.4932C12 11.3453 11.1047 10.415 9.99998 10.415ZM16.3334 7.7006C12.7315 4.39069 7.26435 4.39426 3.66654 7.7006C3.45091 7.89868 3.44404 8.24256 3.64873 8.45233L4.72498 9.55607C4.91248 9.7483 5.21435 9.76129 5.41404 9.58204C8.03748 7.22552 11.9684 7.23072 14.5856 9.58204C14.7853 9.76129 15.0872 9.74863 15.2747 9.55607L16.3509 8.45233C16.5559 8.24256 16.5487 7.89835 16.3334 7.7006Z" fill="#a6894e"/>
</svg>
