<svg width="15" height="18" viewBox="0 0 15 18" fill="none" xmlns="http://www.w3.org/2000/svg">
<path d="M4.125 9.25C5.15883 9.25 6 7.68115 6 5.75298C6 3.82481 5.15883 2.25596 4.125 2.25596C3.09117 2.25596 2.25 3.82481 2.25 5.75298C2.25 7.68115 3.09117 9.25 4.125 9.25ZM12.375 3.65477H7.125C6.91781 3.65477 6.75 3.96775 6.75 4.35417V10.6488H1.5V1.55655C1.5 1.17013 1.33219 0.857147 1.125 0.857147H0.375C0.167812 0.857147 0 1.17013 0 1.55655V16.9435C0 17.3299 0.167812 17.6429 0.375 17.6429H1.125C1.33219 17.6429 1.5 17.3299 1.5 16.9435V14.8452H13.5V16.9435C13.5 17.3299 13.6678 17.6429 13.875 17.6429H14.625C14.8322 17.6429 15 17.3299 15 16.9435V8.5506C15 5.84653 13.8248 3.65477 12.375 3.65477Z" fill="#a6894e"/>
</svg>
