<svg width="18" height="21" viewBox="0 0 18 21" fill="none" xmlns="http://www.w3.org/2000/svg">
<path d="M11.9732 10.6919C11.498 10.6919 11.0508 10.2872 10.8089 9.63979L9.00062 4.847L7.19511 9.63979C6.95044 10.2917 6.50328 10.6964 6.028 10.6964C5.90144 10.6964 5.77489 10.6694 5.65396 10.6109L1.80108 8.84849V16.8515C1.80108 17.5124 2.08231 18.0879 2.48166 18.2452L8.5619 20.6776C8.84876 20.79 9.14968 20.79 9.43372 20.6776L15.5196 18.2452C15.9189 18.0834 16.2002 17.5079 16.2002 16.8515V8.84849L12.3473 10.6064C12.2264 10.6649 12.0998 10.6919 11.9732 10.6919ZM17.9522 5.6473L16.5039 1.02536C16.4167 0.746601 16.2283 0.584743 16.0342 0.625207L9.00062 2.05945L11.5795 8.89795C11.6864 9.1812 11.9001 9.31608 12.0998 9.22616L17.6654 6.68589C17.9438 6.5555 18.0788 6.06094 17.9522 5.6473ZM1.49735 1.02536L0.0489998 5.6473C-0.080367 6.06094 0.0574368 6.5555 0.333044 6.68139L5.89863 9.22166C6.09831 9.31158 6.31204 9.1767 6.41891 8.89345L9.00062 2.05945L1.96419 0.625207C1.77014 0.589239 1.58453 0.746601 1.49735 1.02536Z" fill="#a6894e"/>
</svg>
