<svg width="19" height="21" viewBox="0 0 19 21" fill="none" xmlns="http://www.w3.org/2000/svg">
<path d="M18.9451 10.8497C16.3485 10.8162 14.2519 8.58011 14.2519 5.81956C11.6479 5.81956 9.53899 3.5972 9.50707 0.844926C8.49548 0.682055 7.46124 0.856728 6.54873 1.34927L3.98337 2.73486C3.05988 3.23379 2.30914 4.02994 1.83883 5.00914L0.536297 7.71894C0.0645852 8.70063 -0.101947 9.8154 0.060557 10.9036L0.508836 13.9041C0.671179 14.9912 1.15389 15.9959 1.88781 16.7744L3.92028 18.9287C4.65189 19.7045 5.59643 20.2149 6.61849 20.3867L9.46514 20.8647C10.486 21.0362 11.5321 20.8603 12.4535 20.3627L15.0189 18.9775C15.9423 18.4784 16.693 17.6823 17.1634 16.7032L18.466 13.9934C18.9321 13.024 19.0972 11.9249 18.9451 10.8497ZM6.53129 15.2629C5.87557 15.2629 5.34379 14.6992 5.34379 14.004C5.34379 13.3089 5.87557 12.7451 6.53129 12.7451C7.18701 12.7451 7.71878 13.3089 7.71878 14.004C7.71878 14.6992 7.18701 15.2629 6.53129 15.2629ZM7.71878 8.9684C7.06306 8.9684 6.53129 8.40465 6.53129 7.70949C6.53129 7.01434 7.06306 6.45059 7.71878 6.45059C8.3745 6.45059 8.90627 7.01434 8.90627 7.70949C8.90627 8.40465 8.3745 8.9684 7.71878 8.9684ZM13.6563 14.004C13.0005 14.004 12.4688 13.4403 12.4688 12.7451C12.4688 12.05 13.0005 11.4862 13.6563 11.4862C14.312 11.4862 14.8437 12.05 14.8437 12.7451C14.8437 13.4403 14.312 14.004 13.6563 14.004Z" fill="#a6894e"/>
</svg>
