<svg width="15" height="17" viewBox="0 0 15 17" fill="none" xmlns="http://www.w3.org/2000/svg">
<path d="M3.75 7.16071V9.95833H11.25V7.16071C11.25 5.61765 11.9227 4.36309 12.75 4.36309H13.5C13.5 2.04631 12.4922 0.166664 11.25 0.166664H3.75C2.50781 0.166664 1.5 2.04631 1.5 4.36309H2.25C3.07734 4.36309 3.75 5.61765 3.75 7.16071ZM13.5 5.7619H12.75C12.3352 5.7619 12 6.38699 12 7.16071V11.3571H3V7.16071C3 6.38699 2.66484 5.7619 2.25 5.7619H1.5C0.672656 5.7619 0 7.01646 0 8.55952C0 9.59114 0.304688 10.4829 0.75 10.9681V16.253C0.75 16.6376 0.91875 16.9524 1.125 16.9524H2.625C2.83125 16.9524 3 16.6376 3 16.253V15.5536H12V16.253C12 16.6376 12.1687 16.9524 12.375 16.9524H13.875C14.0813 16.9524 14.25 16.6376 14.25 16.253V10.9681C14.6953 10.4829 15 9.59114 15 8.55952C15 7.01646 14.3273 5.7619 13.5 5.7619Z" fill="#a6894e"/>
</svg>
